<mxfile host="drawio-plugin" modified="2024-06-18T17:33:51.598Z" agent="5.0 (X11; Linux x86_64) AppleWebKit/537.36 (KHTML, like Gecko) Chrome/111.0.0.0 Safari/537.36" etag="ZdSVE0AF8Q9uBAukflq1" version="20.5.3" type="embed"><diagram id="ERxrzM34JgP0kjhDalQf" name="Page-1"><mxGraphModel dx="533" dy="145" grid="1" gridSize="10" guides="1" tooltips="1" connect="1" arrows="1" fold="1" page="0" pageScale="1" pageWidth="827" pageHeight="1169" math="0" shadow="0"><root><mxCell id="0"/><mxCell id="1" parent="0"/><mxCell id="224" value="Impiegato" style="shape=umlActor;verticalLabelPosition=bottom;verticalAlign=top;html=1;outlineConnect=0;" parent="1" vertex="1"><mxGeometry x="-80" y="60" width="30" height="60" as="geometry"/></mxCell><mxCell id="225" value="" style="endArrow=none;html=1;rounded=0;strokeWidth=2;" parent="1" edge="1"><mxGeometry width="50" height="50" relative="1" as="geometry"><mxPoint x="-65.16666666666663" y="180" as="sourcePoint"/><mxPoint x="-65.5" y="140" as="targetPoint"/></mxGeometry></mxCell><mxCell id="228" value="" style="swimlane;startSize=0;strokeWidth=2;" parent="1" vertex="1"><mxGeometry x="30" y="90" width="100" height="60" as="geometry"/></mxCell><mxCell id="230" value="Preventivi" style="text;html=1;align=center;verticalAlign=middle;resizable=0;points=[];autosize=1;strokeColor=none;fillColor=none;" parent="228" vertex="1"><mxGeometry x="10" y="15" width="80" height="30" as="geometry"/></mxCell><mxCell id="231" value="" style="swimlane;startSize=0;strokeWidth=2;" parent="1" vertex="1"><mxGeometry x="165" y="90" width="110" height="60" as="geometry"/></mxCell><mxCell id="232" value="PreventivoDetailts" style="text;html=1;align=center;verticalAlign=middle;resizable=0;points=[];autosize=1;strokeColor=none;fillColor=none;" parent="231" vertex="1"><mxGeometry x="-5" y="15" width="120" height="30" as="geometry"/></mxCell><mxCell id="234" value="" style="endArrow=classic;html=1;rounded=0;strokeWidth=2;entryX=0;entryY=0;entryDx=0;entryDy=0;" parent="1" target="266" edge="1"><mxGeometry width="50" height="50" relative="1" as="geometry"><mxPoint x="-60" y="190" as="sourcePoint"/><mxPoint x="80" y="190" as="targetPoint"/></mxGeometry></mxCell><mxCell id="246" value="" style="endArrow=classic;html=1;rounded=0;strokeWidth=2;startArrow=none;" parent="1" source="353" edge="1"><mxGeometry width="50" height="50" relative="1" as="geometry"><mxPoint x="90" y="240" as="sourcePoint"/><mxPoint x="390" y="240" as="targetPoint"/></mxGeometry></mxCell><mxCell id="247" value="getInstance" style="text;html=1;strokeColor=none;fillColor=none;align=center;verticalAlign=middle;whiteSpace=wrap;rounded=0;labelBackgroundColor=none;strokeWidth=2;" parent="1" vertex="1"><mxGeometry x="150" y="210" width="60" height="30" as="geometry"/></mxCell><mxCell id="356" style="edgeStyle=orthogonalEdgeStyle;rounded=0;orthogonalLoop=1;jettySize=auto;html=1;entryX=0;entryY=0;entryDx=0;entryDy=0;exitX=1.029;exitY=0.618;exitDx=0;exitDy=0;exitPerimeter=0;strokeWidth=2;" edge="1" parent="1" source="266" target="353"><mxGeometry relative="1" as="geometry"><mxPoint x="471" y="240" as="targetPoint"/><Array as="points"><mxPoint x="238" y="239"/><mxPoint x="390" y="240"/></Array></mxGeometry></mxCell><mxCell id="266" value="" style="swimlane;startSize=0;labelBackgroundColor=none;strokeWidth=2;" parent="1" vertex="1"><mxGeometry x="75" y="190" width="10" height="80" as="geometry"/></mxCell><mxCell id="267" value="" style="endArrow=none;html=1;rounded=0;strokeWidth=2;exitX=0.5;exitY=0;exitDx=0;exitDy=0;" parent="1" edge="1" source="266"><mxGeometry width="50" height="50" relative="1" as="geometry"><mxPoint x="80" y="170" as="sourcePoint"/><mxPoint x="79.75999999999999" y="150" as="targetPoint"/></mxGeometry></mxCell><mxCell id="269" value="" style="endArrow=none;html=1;rounded=0;strokeWidth=2;dashed=1;startArrow=none;entryX=0.5;entryY=1;entryDx=0;entryDy=0;" parent="1" source="331" target="231" edge="1"><mxGeometry width="50" height="50" relative="1" as="geometry"><mxPoint x="230" y="860" as="sourcePoint"/><mxPoint x="229.69" y="150.00000000000006" as="targetPoint"/></mxGeometry></mxCell><mxCell id="271" value="" style="endArrow=none;dashed=1;html=1;rounded=0;entryX=0.5;entryY=1;entryDx=0;entryDy=0;strokeWidth=2;exitX=0.5;exitY=0;exitDx=0;exitDy=0;" parent="1" source="328" target="266" edge="1"><mxGeometry width="50" height="50" relative="1" as="geometry"><mxPoint x="80" y="400" as="sourcePoint"/><mxPoint x="120" y="290" as="targetPoint"/></mxGeometry></mxCell><mxCell id="274" value="" style="endArrow=none;dashed=1;html=1;rounded=0;strokeWidth=2;exitX=0.5;exitY=0;exitDx=0;exitDy=0;startArrow=none;" parent="1" source="358" edge="1"><mxGeometry width="50" height="50" relative="1" as="geometry"><mxPoint x="-100" y="512.5" as="sourcePoint"/><mxPoint x="-65" y="170" as="targetPoint"/></mxGeometry></mxCell><mxCell id="287" value="load" style="text;html=1;strokeColor=none;fillColor=none;align=center;verticalAlign=middle;whiteSpace=wrap;rounded=0;labelBackgroundColor=none;strokeWidth=2;" parent="1" vertex="1"><mxGeometry x="-30" y="195" width="60" height="30" as="geometry"/></mxCell><mxCell id="289" value="" style="swimlane;startSize=0;strokeWidth=2;" parent="1" vertex="1"><mxGeometry x="340" y="90" width="110" height="60" as="geometry"/></mxCell><mxCell id="290" value="RegistroModel" style="text;html=1;align=center;verticalAlign=middle;resizable=0;points=[];autosize=1;strokeColor=none;fillColor=none;" parent="289" vertex="1"><mxGeometry x="5" y="15" width="100" height="30" as="geometry"/></mxCell><mxCell id="357" value="" style="endArrow=none;dashed=1;html=1;rounded=0;strokeWidth=2;startArrow=none;exitX=0.5;exitY=0;exitDx=0;exitDy=0;" edge="1" parent="289" source="353"><mxGeometry width="50" height="50" relative="1" as="geometry"><mxPoint x="54.639999999999986" y="165" as="sourcePoint"/><mxPoint x="55" y="60" as="targetPoint"/></mxGeometry></mxCell><mxCell id="291" value="" style="endArrow=none;dashed=1;html=1;rounded=0;entryX=0.5;entryY=1;entryDx=0;entryDy=0;strokeWidth=2;startArrow=none;" parent="1" source="333" edge="1" target="353"><mxGeometry width="50" height="50" relative="1" as="geometry"><mxPoint x="395" y="873.2000122070312" as="sourcePoint"/><mxPoint x="394.5" y="150" as="targetPoint"/></mxGeometry></mxCell><mxCell id="294" value="" style="endArrow=classic;html=1;rounded=0;strokeWidth=2;dashed=1;entryX=1.091;entryY=0.9;entryDx=0;entryDy=0;entryPerimeter=0;" parent="1" target="266" edge="1"><mxGeometry width="50" height="50" relative="1" as="geometry"><mxPoint x="390" y="260" as="sourcePoint"/><mxPoint x="90" y="260" as="targetPoint"/></mxGeometry></mxCell><mxCell id="295" value="registro" style="text;html=1;strokeColor=none;fillColor=none;align=center;verticalAlign=middle;whiteSpace=wrap;rounded=0;labelBackgroundColor=none;strokeWidth=2;" parent="1" vertex="1"><mxGeometry x="160" y="260" width="60" height="30" as="geometry"/></mxCell><mxCell id="296" value="&lt;b&gt;loop&lt;/b&gt;" style="shape=umlFrame;whiteSpace=wrap;html=1;labelBackgroundColor=none;strokeWidth=2;fillColor=none;width=100;height=20;" parent="1" vertex="1"><mxGeometry x="60" y="290" width="570" height="100" as="geometry"/></mxCell><mxCell id="297" value="" style="swimlane;startSize=0;strokeWidth=2;" parent="1" vertex="1"><mxGeometry x="490" y="300" width="115" height="60" as="geometry"/></mxCell><mxCell id="298" value="PreventivoElement" style="text;html=1;align=center;verticalAlign=middle;resizable=0;points=[];autosize=1;strokeColor=none;fillColor=none;" parent="297" vertex="1"><mxGeometry x="-5" y="15" width="120" height="30" as="geometry"/></mxCell><mxCell id="299" value="" style="endArrow=classic;html=1;rounded=0;strokeWidth=2;entryX=-0.001;entryY=0.664;entryDx=0;entryDy=0;entryPerimeter=0;" parent="1" target="297" edge="1"><mxGeometry width="50" height="50" relative="1" as="geometry"><mxPoint x="85" y="340" as="sourcePoint"/><mxPoint x="395" y="340" as="targetPoint"/><Array as="points"><mxPoint x="480" y="340"/></Array></mxGeometry></mxCell><mxCell id="300" value="loadPreventivoElement" style="text;html=1;strokeColor=none;fillColor=none;align=center;verticalAlign=middle;whiteSpace=wrap;rounded=0;labelBackgroundColor=none;strokeWidth=2;" parent="1" vertex="1"><mxGeometry x="180" y="310" width="130" height="30" as="geometry"/></mxCell><mxCell id="301" value="&lt;font color=&quot;#171717&quot;&gt;[for each preventivo in Registro]&lt;/font&gt;" style="text;html=1;strokeColor=none;fillColor=none;align=center;verticalAlign=middle;whiteSpace=wrap;rounded=0;" parent="1" vertex="1"><mxGeometry x="60" y="370" width="240" height="20" as="geometry"/></mxCell><mxCell id="303" value="" style="endArrow=classic;html=1;rounded=0;strokeWidth=2;" parent="1" edge="1"><mxGeometry width="50" height="50" relative="1" as="geometry"><mxPoint x="-60" y="430" as="sourcePoint"/><mxPoint x="80" y="430" as="targetPoint"/></mxGeometry></mxCell><mxCell id="304" value="selectPreventivo" style="text;html=1;strokeColor=none;fillColor=none;align=center;verticalAlign=middle;whiteSpace=wrap;rounded=0;labelBackgroundColor=none;strokeWidth=2;" parent="1" vertex="1"><mxGeometry x="-40" y="400" width="60" height="30" as="geometry"/></mxCell><mxCell id="305" value="" style="endArrow=open;html=1;rounded=0;strokeWidth=2;exitX=1.095;exitY=0.883;exitDx=0;exitDy=0;exitPerimeter=0;endFill=0;endSize=8;" parent="1" edge="1"><mxGeometry width="50" height="50" relative="1" as="geometry"><mxPoint x="82.98000000000005" y="460.64" as="sourcePoint"/><mxPoint x="387.03" y="460" as="targetPoint"/></mxGeometry></mxCell><mxCell id="306" value="setCurrentPreventivo" style="text;html=1;strokeColor=none;fillColor=none;align=center;verticalAlign=middle;whiteSpace=wrap;rounded=0;labelBackgroundColor=none;strokeWidth=2;" parent="1" vertex="1"><mxGeometry x="190" y="430" width="60" height="30" as="geometry"/></mxCell><mxCell id="307" value="" style="endArrow=classic;html=1;rounded=0;strokeWidth=2;entryX=0;entryY=0;entryDx=0;entryDy=0;" parent="1" edge="1" target="331"><mxGeometry width="50" height="50" relative="1" as="geometry"><mxPoint x="85" y="500" as="sourcePoint"/><mxPoint x="219.07999999999993" y="500" as="targetPoint"/></mxGeometry></mxCell><mxCell id="308" value="load" style="text;html=1;strokeColor=none;fillColor=none;align=center;verticalAlign=middle;whiteSpace=wrap;rounded=0;labelBackgroundColor=none;strokeWidth=2;" parent="1" vertex="1"><mxGeometry x="120" y="500" width="60" height="30" as="geometry"/></mxCell><mxCell id="309" value="" style="endArrow=classic;html=1;rounded=0;strokeWidth=2;exitX=-0.114;exitY=0.695;exitDx=0;exitDy=0;exitPerimeter=0;dashed=1;entryX=1;entryY=0.75;entryDx=0;entryDy=0;" parent="1" source="333" edge="1" target="331"><mxGeometry width="50" height="50" relative="1" as="geometry"><mxPoint x="400" y="520" as="sourcePoint"/><mxPoint x="230.00000000000003" y="520.64" as="targetPoint"/></mxGeometry></mxCell><mxCell id="311" value="&lt;b&gt;opt&lt;/b&gt;" style="shape=umlFrame;whiteSpace=wrap;html=1;labelBackgroundColor=none;strokeWidth=2;fillColor=none;width=100;height=20;" parent="1" vertex="1"><mxGeometry x="-80" y="680" width="630" height="150" as="geometry"/></mxCell><mxCell id="310" value="getCurrentPreventivo" style="text;html=1;strokeColor=none;fillColor=none;align=center;verticalAlign=middle;whiteSpace=wrap;rounded=0;labelBackgroundColor=none;strokeWidth=2;" parent="1" vertex="1"><mxGeometry x="280" y="480" width="60" height="30" as="geometry"/></mxCell><mxCell id="312" value="&lt;b&gt;opt&lt;/b&gt;" style="shape=umlFrame;whiteSpace=wrap;html=1;labelBackgroundColor=none;strokeWidth=2;fillColor=none;width=100;height=20;" parent="1" vertex="1"><mxGeometry x="-80" y="570" width="630" height="110" as="geometry"/></mxCell><mxCell id="313" value="" style="endArrow=classic;html=1;rounded=0;strokeWidth=2;entryX=0;entryY=0;entryDx=0;entryDy=0;exitX=1;exitY=0;exitDx=0;exitDy=0;" parent="1" source="338" target="335" edge="1"><mxGeometry width="50" height="50" relative="1" as="geometry"><mxPoint x="-50" y="600" as="sourcePoint"/><mxPoint x="230" y="600" as="targetPoint"/></mxGeometry></mxCell><mxCell id="314" value="scaricaPDF" style="text;html=1;strokeColor=none;fillColor=none;align=center;verticalAlign=middle;whiteSpace=wrap;rounded=0;labelBackgroundColor=none;strokeWidth=2;" parent="1" vertex="1"><mxGeometry x="50" y="570" width="60" height="30" as="geometry"/></mxCell><mxCell id="315" value="" style="endArrow=classic;html=1;rounded=0;strokeWidth=2;exitX=1.102;exitY=0.242;exitDx=0;exitDy=0;exitPerimeter=0;entryX=1;entryY=0;entryDx=0;entryDy=0;" parent="1" source="335" target="363" edge="1"><mxGeometry width="50" height="50" relative="1" as="geometry"><mxPoint x="230" y="600" as="sourcePoint"/><mxPoint x="240" y="660" as="targetPoint"/><Array as="points"><mxPoint x="260" y="616"/><mxPoint x="260" y="660"/></Array></mxGeometry></mxCell><mxCell id="316" value="download" style="text;html=1;strokeColor=none;fillColor=none;align=center;verticalAlign=middle;whiteSpace=wrap;rounded=0;labelBackgroundColor=none;strokeWidth=2;" parent="1" vertex="1"><mxGeometry x="260" y="620" width="60" height="30" as="geometry"/></mxCell><mxCell id="318" value="" style="endArrow=classic;html=1;rounded=0;strokeWidth=2;entryX=0;entryY=0;entryDx=0;entryDy=0;" parent="1" target="341" edge="1"><mxGeometry width="50" height="50" relative="1" as="geometry"><mxPoint x="-67.03999999999999" y="710" as="sourcePoint"/><mxPoint x="230" y="710" as="targetPoint"/></mxGeometry></mxCell><mxCell id="319" value="changeStato" style="text;html=1;strokeColor=none;fillColor=none;align=center;verticalAlign=middle;whiteSpace=wrap;rounded=0;labelBackgroundColor=none;strokeWidth=2;" parent="1" vertex="1"><mxGeometry x="105" y="680" width="60" height="30" as="geometry"/></mxCell><mxCell id="320" value="" style="endArrow=open;html=1;rounded=0;strokeWidth=2;entryX=0;entryY=0;entryDx=0;entryDy=0;endFill=0;endSize=8;" parent="1" target="343" edge="1"><mxGeometry width="50" height="50" relative="1" as="geometry"><mxPoint x="230" y="730" as="sourcePoint"/><mxPoint x="374.0799999999999" y="730" as="targetPoint"/></mxGeometry></mxCell><mxCell id="321" value="setStato" style="text;html=1;strokeColor=none;fillColor=none;align=center;verticalAlign=middle;whiteSpace=wrap;rounded=0;labelBackgroundColor=none;strokeWidth=2;" parent="1" vertex="1"><mxGeometry x="280" y="700" width="60" height="30" as="geometry"/></mxCell><mxCell id="322" value="&lt;font color=&quot;#171717&quot;&gt;[richiedo pdf]&lt;/font&gt;" style="text;html=1;strokeColor=none;fillColor=none;align=center;verticalAlign=middle;whiteSpace=wrap;rounded=0;" parent="1" vertex="1"><mxGeometry x="-110" y="660" width="240" height="20" as="geometry"/></mxCell><mxCell id="323" value="&lt;font color=&quot;#171717&quot;&gt;[se clicco il bottone per segnalare pagamenti, ritiri...]&lt;/font&gt;" style="text;html=1;strokeColor=none;fillColor=none;align=center;verticalAlign=middle;whiteSpace=wrap;rounded=0;" parent="1" vertex="1"><mxGeometry x="-80" y="810" width="330" height="20" as="geometry"/></mxCell><mxCell id="324" value="" style="endArrow=classic;html=1;rounded=0;strokeWidth=2;dashed=1;entryX=1;entryY=0;entryDx=0;entryDy=0;" parent="1" target="339" edge="1"><mxGeometry width="50" height="50" relative="1" as="geometry"><mxPoint x="220" y="760" as="sourcePoint"/><mxPoint x="80" y="755" as="targetPoint"/></mxGeometry></mxCell><mxCell id="327" value="goBack" style="text;html=1;strokeColor=none;fillColor=none;align=center;verticalAlign=middle;whiteSpace=wrap;rounded=0;labelBackgroundColor=none;strokeWidth=2;" parent="1" vertex="1"><mxGeometry x="120" y="760" width="60" height="30" as="geometry"/></mxCell><mxCell id="328" value="" style="swimlane;startSize=0;labelBackgroundColor=none;strokeWidth=2;" parent="1" vertex="1"><mxGeometry x="75" y="340" width="10" height="30" as="geometry"/></mxCell><mxCell id="329" value="" style="swimlane;startSize=0;labelBackgroundColor=none;strokeWidth=2;" parent="1" vertex="1"><mxGeometry x="-70" y="430" width="10" height="30" as="geometry"/></mxCell><mxCell id="330" value="" style="swimlane;startSize=0;labelBackgroundColor=none;strokeWidth=2;" parent="1" vertex="1"><mxGeometry x="75" y="430" width="10" height="70" as="geometry"/></mxCell><mxCell id="331" value="" style="swimlane;startSize=0;labelBackgroundColor=none;strokeWidth=2;" parent="1" vertex="1"><mxGeometry x="215" y="500" width="10" height="30" as="geometry"/></mxCell><mxCell id="332" value="" style="endArrow=none;html=1;rounded=0;strokeWidth=2;dashed=1;startArrow=none;" parent="1" source="335" target="331" edge="1"><mxGeometry width="50" height="50" relative="1" as="geometry"><mxPoint x="230" y="860" as="sourcePoint"/><mxPoint x="229.69000000000005" y="150" as="targetPoint"/></mxGeometry></mxCell><mxCell id="333" value="" style="swimlane;startSize=0;labelBackgroundColor=none;strokeWidth=2;" parent="1" vertex="1"><mxGeometry x="390" y="460" width="10" height="90" as="geometry"/></mxCell><mxCell id="334" value="" style="endArrow=none;dashed=1;html=1;rounded=0;entryX=0.5;entryY=1;entryDx=0;entryDy=0;strokeWidth=2;exitX=0.5;exitY=0;exitDx=0;exitDy=0;fontStyle=1" parent="1" source="343" target="333" edge="1"><mxGeometry width="50" height="50" relative="1" as="geometry"><mxPoint x="395" y="680" as="sourcePoint"/><mxPoint x="394.5" y="150" as="targetPoint"/></mxGeometry></mxCell><mxCell id="335" value="" style="swimlane;startSize=0;labelBackgroundColor=none;strokeWidth=2;" parent="1" vertex="1"><mxGeometry x="215" y="600" width="10" height="70" as="geometry"/></mxCell><mxCell id="336" value="" style="endArrow=none;html=1;rounded=0;strokeWidth=2;dashed=1;startArrow=none;" parent="1" source="341" target="335" edge="1"><mxGeometry width="50" height="50" relative="1" as="geometry"><mxPoint x="230" y="860" as="sourcePoint"/><mxPoint x="220.7246376811595" y="540" as="targetPoint"/></mxGeometry></mxCell><mxCell id="338" value="" style="swimlane;startSize=0;labelBackgroundColor=none;strokeWidth=2;" parent="1" vertex="1"><mxGeometry x="-70" y="600" width="10" height="40" as="geometry"/></mxCell><mxCell id="339" value="" style="swimlane;startSize=0;labelBackgroundColor=none;strokeWidth=2;" parent="1" vertex="1"><mxGeometry x="75" y="760" width="10" height="20" as="geometry"/></mxCell><mxCell id="340" value="" style="swimlane;startSize=0;labelBackgroundColor=none;strokeWidth=2;" parent="1" vertex="1"><mxGeometry x="-70" y="710" width="10" height="40" as="geometry"/></mxCell><mxCell id="341" value="" style="swimlane;startSize=0;labelBackgroundColor=none;strokeWidth=2;" parent="1" vertex="1"><mxGeometry x="215" y="710" width="10" height="30" as="geometry"/></mxCell><mxCell id="342" value="" style="endArrow=none;html=1;rounded=0;strokeWidth=2;dashed=1;" parent="1" target="341" edge="1"><mxGeometry width="50" height="50" relative="1" as="geometry"><mxPoint x="220" y="830" as="sourcePoint"/><mxPoint x="221.91489361702133" y="670" as="targetPoint"/></mxGeometry></mxCell><mxCell id="343" value="" style="swimlane;startSize=0;labelBackgroundColor=none;strokeWidth=2;" parent="1" vertex="1"><mxGeometry x="390" y="730" width="10" height="70" as="geometry"/></mxCell><mxCell id="344" value="" style="endArrow=classic;html=1;rounded=0;strokeWidth=2;entryX=1;entryY=0;entryDx=0;entryDy=0;exitX=1.099;exitY=0.2;exitDx=0;exitDy=0;exitPerimeter=0;" parent="1" source="343" target="362" edge="1"><mxGeometry width="50" height="50" relative="1" as="geometry"><mxPoint x="410" y="710" as="sourcePoint"/><mxPoint x="410" y="780" as="targetPoint"/><Array as="points"><mxPoint x="450" y="744"/><mxPoint x="450" y="780"/></Array></mxGeometry></mxCell><mxCell id="345" value="update" style="text;html=1;strokeColor=none;fillColor=none;align=center;verticalAlign=middle;whiteSpace=wrap;rounded=0;labelBackgroundColor=none;strokeWidth=2;" parent="1" vertex="1"><mxGeometry x="460" y="750" width="60" height="30" as="geometry"/></mxCell><mxCell id="346" value="" style="endArrow=none;dashed=1;html=1;rounded=0;entryX=0.5;entryY=1;entryDx=0;entryDy=0;strokeWidth=2;" parent="1" edge="1" target="343"><mxGeometry width="50" height="50" relative="1" as="geometry"><mxPoint x="395" y="830" as="sourcePoint"/><mxPoint x="394.82" y="750" as="targetPoint"/></mxGeometry></mxCell><mxCell id="347" value="" style="endArrow=none;dashed=1;html=1;rounded=0;entryX=0.5;entryY=1;entryDx=0;entryDy=0;strokeWidth=2;exitX=0.5;exitY=0;exitDx=0;exitDy=0;" parent="1" source="330" edge="1"><mxGeometry width="50" height="50" relative="1" as="geometry"><mxPoint x="79.77" y="420" as="sourcePoint"/><mxPoint x="79.77" y="370" as="targetPoint"/></mxGeometry></mxCell><mxCell id="348" value="" style="endArrow=none;dashed=1;html=1;rounded=0;entryX=0.5;entryY=1;entryDx=0;entryDy=0;strokeWidth=2;exitX=0.5;exitY=0;exitDx=0;exitDy=0;" parent="1" source="339" edge="1"><mxGeometry width="50" height="50" relative="1" as="geometry"><mxPoint x="80" y="570" as="sourcePoint"/><mxPoint x="79.76999999999998" y="500" as="targetPoint"/></mxGeometry></mxCell><mxCell id="349" value="" style="endArrow=none;dashed=1;html=1;rounded=0;entryX=0.5;entryY=1;entryDx=0;entryDy=0;strokeWidth=2;" parent="1" edge="1"><mxGeometry width="50" height="50" relative="1" as="geometry"><mxPoint x="80" y="830" as="sourcePoint"/><mxPoint x="79.76999999999998" y="780" as="targetPoint"/></mxGeometry></mxCell><mxCell id="350" value="" style="endArrow=none;dashed=1;html=1;rounded=0;entryX=0.501;entryY=1.02;entryDx=0;entryDy=0;strokeWidth=2;entryPerimeter=0;exitX=0.5;exitY=0;exitDx=0;exitDy=0;" parent="1" edge="1" source="338"><mxGeometry width="50" height="50" relative="1" as="geometry"><mxPoint x="-65" y="590" as="sourcePoint"/><mxPoint x="-65.33000000000001" y="460" as="targetPoint"/></mxGeometry></mxCell><mxCell id="351" value="" style="endArrow=none;dashed=1;html=1;rounded=0;entryX=0.501;entryY=1.02;entryDx=0;entryDy=0;strokeWidth=2;entryPerimeter=0;" parent="1" edge="1"><mxGeometry width="50" height="50" relative="1" as="geometry"><mxPoint x="-65" y="700" as="sourcePoint"/><mxPoint x="-65.31000000000004" y="640" as="targetPoint"/></mxGeometry></mxCell><mxCell id="352" value="" style="endArrow=none;dashed=1;html=1;rounded=0;entryX=0.501;entryY=1.02;entryDx=0;entryDy=0;strokeWidth=2;entryPerimeter=0;exitX=0.044;exitY=0.935;exitDx=0;exitDy=0;exitPerimeter=0;" parent="1" source="323" edge="1"><mxGeometry width="50" height="50" relative="1" as="geometry"><mxPoint x="-65" y="810" as="sourcePoint"/><mxPoint x="-65.31000000000006" y="750" as="targetPoint"/></mxGeometry></mxCell><mxCell id="353" value="" style="swimlane;startSize=0;labelBackgroundColor=none;strokeWidth=2;" vertex="1" parent="1"><mxGeometry x="390" y="240" width="10" height="50" as="geometry"/></mxCell><mxCell id="358" value="" style="swimlane;startSize=0;labelBackgroundColor=none;strokeWidth=2;" vertex="1" parent="1"><mxGeometry x="-70" y="190" width="10" height="30" as="geometry"/></mxCell><mxCell id="359" value="" style="endArrow=none;dashed=1;html=1;rounded=0;strokeWidth=2;exitX=0.5;exitY=0;exitDx=0;exitDy=0;" edge="1" parent="1" source="329" target="358"><mxGeometry width="50" height="50" relative="1" as="geometry"><mxPoint x="-65" y="430" as="sourcePoint"/><mxPoint x="-65" y="170" as="targetPoint"/></mxGeometry></mxCell><mxCell id="360" value="" style="endArrow=classic;html=1;rounded=0;strokeWidth=2;exitX=1.072;exitY=0.161;exitDx=0;exitDy=0;endFill=1;endSize=6;entryX=0;entryY=0.5;entryDx=0;entryDy=0;exitPerimeter=0;" edge="1" parent="1" source="331" target="333"><mxGeometry width="50" height="50" relative="1" as="geometry"><mxPoint x="92.98000000000002" y="470.6400000000001" as="sourcePoint"/><mxPoint x="397.03" y="470" as="targetPoint"/></mxGeometry></mxCell><mxCell id="361" value="preventivo" style="text;html=1;strokeColor=none;fillColor=none;align=center;verticalAlign=middle;whiteSpace=wrap;rounded=0;labelBackgroundColor=none;strokeWidth=2;" vertex="1" parent="1"><mxGeometry x="275" y="520" width="60" height="30" as="geometry"/></mxCell><mxCell id="362" value="" style="swimlane;startSize=0;labelBackgroundColor=none;strokeWidth=2;" vertex="1" parent="1"><mxGeometry x="400" y="780" width="10" height="20" as="geometry"/></mxCell><mxCell id="302" value="&amp;lt;&amp;lt;create&amp;gt;&amp;gt;" style="text;html=1;strokeColor=none;fillColor=none;align=center;verticalAlign=middle;whiteSpace=wrap;rounded=0;labelBackgroundColor=none;strokeWidth=2;" parent="1" vertex="1"><mxGeometry x="410" y="315" width="60" height="30" as="geometry"/></mxCell><mxCell id="363" value="" style="swimlane;startSize=0;labelBackgroundColor=none;strokeWidth=2;" vertex="1" parent="1"><mxGeometry x="225" y="660" width="10" height="10" as="geometry"/></mxCell></root></mxGraphModel></diagram></mxfile>